<svg id="svg" version="1.1" xmlns="http://www.w3.org/2000/svg" xmlns:xlink="http://www.w3.org/1999/xlink" width="400" height="400" viewBox="0, 0, 400,400"><g id="svgg"><path id="path0" d="M108.800 20.444 C 96.725 22.081,86.830 29.979,83.548 40.600 C 82.837 42.899,82.806 45.991,82.803 113.820 C 82.801 158.012,82.657 184.783,82.420 185.020 C 82.180 185.260,124.482 185.362,197.240 185.298 L 312.441 185.196 314.624 186.229 C 320.230 188.881,323.206 193.827,323.151 200.400 C 323.121 203.932,323.694 206.000,324.701 206.000 C 325.016 206.000,325.731 206.360,326.291 206.800 C 326.850 207.240,327.545 207.600,327.834 207.600 C 328.123 207.600,328.504 207.829,328.680 208.108 C 328.856 208.388,329.450 208.845,330.000 209.124 C 331.410 209.840,332.897 210.697,333.600 211.200 C 334.524 211.861,336.085 212.740,337.300 213.283 C 337.905 213.554,338.400 213.894,338.400 214.039 C 338.400 214.184,338.940 214.527,339.600 214.800 C 340.260 215.073,340.800 215.438,340.800 215.609 C 340.800 215.781,341.295 216.126,341.900 216.377 C 342.505 216.627,343.644 217.229,344.431 217.716 C 348.152 220.014,350.529 221.444,351.417 221.919 C 351.950 222.204,353.331 223.059,354.484 223.819 C 355.638 224.578,356.811 225.200,357.091 225.200 C 357.371 225.200,357.600 225.367,357.600 225.571 C 357.600 225.775,358.095 226.195,358.700 226.505 C 359.305 226.816,360.430 227.433,361.200 227.878 C 361.970 228.323,363.410 229.145,364.400 229.704 L 366.200 230.722 366.200 290.900 C 366.200 337.287,366.089 351.210,365.718 351.658 C 365.452 351.978,365.109 353.041,364.956 354.020 C 364.641 356.022,362.736 359.921,361.330 361.438 C 360.818 361.990,360.400 362.522,360.400 362.621 C 360.400 363.306,355.208 367.600,354.379 367.600 C 354.130 367.600,353.469 367.960,352.909 368.400 C 352.350 368.840,351.389 369.200,350.775 369.200 C 350.160 369.200,349.387 369.470,349.057 369.800 C 348.145 370.712,176.757 370.712,176.000 369.800 C 175.726 369.470,175.342 369.200,175.147 369.200 C 174.952 369.200,173.930 368.615,172.876 367.900 C 170.096 366.013,169.513 365.649,168.400 365.105 C 167.850 364.836,167.310 364.522,167.200 364.407 C 166.651 363.833,163.702 362.000,163.327 362.000 C 163.091 362.000,162.658 361.711,162.365 361.358 C 162.073 361.005,161.465 360.553,161.016 360.352 C 160.567 360.152,159.660 359.628,159.000 359.187 C 158.340 358.746,157.305 358.169,156.700 357.905 C 156.095 357.641,155.600 357.297,155.600 357.142 C 155.600 356.986,155.060 356.575,154.400 356.229 C 153.740 355.883,152.660 355.317,152.000 354.971 C 151.340 354.625,150.800 354.192,150.800 354.010 C 150.800 353.827,150.305 353.483,149.700 353.245 C 148.536 352.786,148.167 352.565,145.124 350.500 C 144.070 349.785,143.118 349.200,143.008 349.200 C 142.898 349.200,141.772 348.480,140.504 347.601 C 139.237 346.721,138.063 346.001,137.896 346.001 C 137.729 346.000,136.695 345.370,135.600 344.600 C 134.505 343.830,133.515 343.200,133.400 343.200 C 133.285 343.200,132.295 342.570,131.200 341.800 C 130.105 341.030,129.124 340.400,129.022 340.400 C 128.819 340.400,126.068 338.633,125.369 338.055 C 125.132 337.858,124.547 337.574,124.069 337.422 C 123.591 337.270,123.200 337.000,123.200 336.822 C 123.200 336.643,122.660 336.273,122.000 336.000 C 121.340 335.727,120.800 335.345,120.800 335.151 C 120.800 334.958,120.594 334.800,120.341 334.800 C 120.089 334.800,118.874 334.125,117.641 333.300 C 115.216 331.677,115.191 331.661,111.734 329.625 C 108.831 327.914,107.041 326.692,106.867 326.300 C 106.793 326.135,106.491 326.000,106.195 326.000 C 105.899 326.000,105.419 325.771,105.129 325.491 C 104.535 324.920,98.982 321.557,97.900 321.113 C 97.515 320.955,97.200 320.640,97.200 320.413 C 97.200 320.186,96.987 320.000,96.726 320.000 C 96.465 320.000,95.880 319.655,95.426 319.233 C 94.088 317.990,89.707 316.738,86.100 316.567 L 82.800 316.410 82.800 332.410 C 82.800 346.881,82.872 348.668,83.556 351.105 C 86.025 359.911,92.587 366.278,103.186 370.152 L 106.600 371.400 228.200 371.400 C 363.653 371.400,349.324 371.681,355.056 368.908 C 360.721 366.168,365.108 359.953,366.789 352.288 C 367.287 350.021,367.406 104.667,366.910 103.861 C 366.740 103.584,365.700 102.575,364.600 101.619 L 362.600 99.882 364.487 101.750 L 366.373 103.619 366.392 122.809 C 366.409 139.049,366.325 142.000,365.849 142.000 C 365.539 142.000,365.191 141.754,365.076 141.454 C 364.961 141.154,363.400 140.063,361.608 139.029 C 359.816 137.995,358.001 136.801,357.575 136.375 C 357.149 135.949,356.530 135.600,356.200 135.600 C 355.870 135.600,355.600 135.420,355.600 135.200 C 355.600 134.980,355.375 134.799,355.100 134.797 C 354.825 134.796,353.160 133.793,351.400 132.568 C 349.640 131.343,347.840 130.172,347.400 129.966 C 346.960 129.760,345.520 128.869,344.200 127.987 C 342.880 127.104,341.305 126.166,340.700 125.903 C 340.095 125.640,339.600 125.297,339.600 125.142 C 339.600 124.986,339.105 124.609,338.500 124.303 C 336.397 123.240,335.398 122.597,335.080 122.100 C 334.904 121.825,334.544 121.600,334.279 121.600 C 334.014 121.600,332.898 120.954,331.799 120.164 C 330.699 119.374,329.395 118.568,328.900 118.374 C 328.405 118.179,328.000 117.835,328.000 117.610 C 328.000 117.384,327.743 117.200,327.429 117.200 C 327.114 117.200,326.619 116.973,326.329 116.695 C 325.571 115.970,323.136 114.377,320.752 113.044 C 320.009 112.628,319.310 112.175,319.200 112.036 C 319.090 111.897,318.550 111.560,318.000 111.288 C 317.450 111.015,316.460 110.433,315.800 109.995 C 315.140 109.557,314.015 108.926,313.300 108.594 C 312.585 108.261,312.000 107.822,312.000 107.616 C 312.000 107.089,310.775 106.438,303.200 102.940 C 301.550 102.178,299.930 101.378,299.600 101.163 C 299.270 100.947,298.505 100.558,297.900 100.298 C 297.295 100.038,296.800 99.684,296.800 99.512 C 296.800 99.341,296.596 99.200,296.346 99.200 C 294.857 99.200,285.121 90.641,283.200 87.644 C 282.870 87.129,282.289 86.299,281.908 85.801 C 281.527 85.302,281.033 84.468,280.809 83.947 C 280.585 83.426,280.233 82.730,280.026 82.400 C 278.104 79.330,278.208 81.056,278.090 50.100 C 277.975 20.061,277.972 20.132,279.520 21.680 C 279.833 21.993,280.000 22.010,280.000 21.729 C 280.000 20.210,281.819 20.242,194.663 20.221 C 148.428 20.209,109.790 20.310,108.800 20.444 M282.800 24.547 C 283.570 25.382,284.560 26.255,285.000 26.487 C 285.440 26.719,285.710 26.825,285.600 26.722 C 283.042 24.343,281.528 23.167,282.800 24.547 M286.620 28.109 C 286.728 28.388,287.217 28.862,287.708 29.161 C 288.559 29.680,288.555 29.656,287.630 28.653 C 286.548 27.477,286.334 27.362,286.620 28.109 M288.443 30.100 C 288.540 30.155,289.785 31.280,291.210 32.600 L 293.800 35.000 291.413 32.500 C 290.099 31.125,288.854 30.000,288.646 30.000 C 288.437 30.000,288.346 30.045,288.443 30.100 M298.739 39.727 C 300.203 41.116,302.817 43.591,304.549 45.227 C 306.281 46.862,308.306 48.782,309.049 49.493 C 309.792 50.204,310.400 50.678,310.400 50.547 C 310.400 50.415,308.375 48.393,305.900 46.054 C 303.425 43.714,300.305 40.765,298.966 39.500 C 297.627 38.235,296.430 37.200,296.305 37.200 C 296.180 37.200,297.275 38.337,298.739 39.727 M312.200 52.400 C 313.059 53.280,313.852 54.000,313.962 54.000 C 314.072 54.000,313.459 53.280,312.600 52.400 C 311.741 51.520,310.948 50.800,310.838 50.800 C 310.728 50.800,311.341 51.520,312.200 52.400 M315.722 55.762 C 316.560 56.553,317.343 57.200,317.464 57.200 C 317.854 57.200,315.827 55.182,315.000 54.746 C 314.560 54.515,314.885 54.972,315.722 55.762 M319.600 59.298 C 319.600 59.379,320.590 60.399,321.800 61.564 C 323.010 62.730,323.998 63.529,323.995 63.342 C 323.992 63.154,323.002 62.134,321.795 61.075 C 320.588 60.016,319.600 59.216,319.600 59.298 M328.571 67.762 C 334.830 73.918,338.000 76.908,338.000 76.657 C 338.000 76.425,333.198 71.793,327.574 66.600 C 325.906 65.060,326.355 65.583,328.571 67.762 M338.634 77.202 C 339.049 77.886,344.400 83.026,344.400 82.741 C 344.400 82.640,343.021 81.216,341.334 79.578 C 339.648 77.940,338.433 76.871,338.634 77.202 M344.800 83.086 C 344.800 83.266,346.642 85.120,348.893 87.207 C 351.144 89.293,354.732 92.685,356.866 94.744 C 359.001 96.803,361.164 98.763,361.673 99.099 C 362.183 99.436,361.970 99.117,361.200 98.390 C 360.430 97.663,356.830 94.269,353.200 90.847 C 349.570 87.424,346.195 84.205,345.700 83.692 C 345.205 83.179,344.800 82.906,344.800 83.086 M315.900 106.682 C 316.395 106.778,317.205 106.778,317.700 106.682 C 318.195 106.587,317.790 106.509,316.800 106.509 C 315.810 106.509,315.405 106.587,315.900 106.682 M325.107 106.690 C 325.826 106.779,326.906 106.777,327.507 106.686 C 328.108 106.595,327.520 106.522,326.200 106.524 C 324.880 106.526,324.388 106.601,325.107 106.690 M337.700 106.696 C 338.965 106.775,341.035 106.775,342.300 106.696 C 343.565 106.616,342.530 106.551,340.000 106.551 C 337.470 106.551,336.435 106.616,337.700 106.696 M351.278 106.698 C 353.631 106.769,357.591 106.769,360.078 106.699 C 362.565 106.629,360.640 106.571,355.800 106.570 C 350.960 106.570,348.925 106.628,351.278 106.698 M17.394 243.400 C 17.394 269.580,17.441 280.231,17.500 267.069 C 17.558 253.907,17.558 232.487,17.500 219.469 C 17.441 206.451,17.394 217.220,17.394 243.400 M324.192 247.000 C 324.192 268.560,324.241 277.321,324.300 266.470 C 324.359 255.618,324.359 237.978,324.300 227.270 C 324.241 216.561,324.192 225.440,324.192 247.000 M210.500 222.276 C 210.885 222.376,211.515 222.376,211.900 222.276 C 212.285 222.175,211.970 222.093,211.200 222.093 C 210.430 222.093,210.115 222.175,210.500 222.276 M269.100 222.282 C 269.595 222.378,270.405 222.378,270.900 222.282 C 271.395 222.187,270.990 222.109,270.000 222.109 C 269.010 222.109,268.605 222.187,269.100 222.282 M128.990 253.000 C 128.990 269.280,129.039 275.882,129.100 267.670 C 129.160 259.459,129.160 246.139,129.100 238.070 C 129.039 230.002,128.990 236.720,128.990 253.000 M185.790 252.800 C 185.790 268.530,185.839 274.965,185.900 267.100 C 185.960 259.235,185.960 246.365,185.900 238.500 C 185.839 230.635,185.790 237.070,185.790 252.800 M281.320 240.000 C 281.320 241.210,281.395 241.705,281.487 241.100 C 281.578 240.495,281.578 239.505,281.487 238.900 C 281.395 238.295,281.320 238.790,281.320 240.000 M143.600 248.287 C 158.359 248.567,170.708 248.573,170.539 248.300 C 170.436 248.135,163.028 248.040,154.076 248.088 C 145.124 248.137,140.410 248.226,143.600 248.287 M170.795 252.282 C 170.688 253.867,170.744 255.019,170.921 254.841 C 171.097 254.664,171.185 253.367,171.116 251.959 L 170.991 249.400 170.795 252.282 M256.522 251.499 C 258.899 251.570,262.679 251.569,264.922 251.498 C 267.165 251.427,265.220 251.369,260.600 251.369 C 255.980 251.370,254.145 251.428,256.522 251.499 M269.905 258.283 C 270.402 258.379,271.122 258.375,271.505 258.275 C 271.887 258.175,271.480 258.096,270.600 258.101 C 269.720 258.105,269.407 258.187,269.905 258.283 M174.200 279.800 C 174.200 281.408,174.335 282.640,174.500 282.538 C 174.665 282.436,174.800 281.204,174.800 279.800 C 174.800 278.396,174.665 277.164,174.500 277.062 C 174.335 276.960,174.200 278.192,174.200 279.800 M211.300 283.476 C 211.685 283.576,212.315 283.576,212.700 283.476 C 213.085 283.375,212.770 283.293,212.000 283.293 C 211.230 283.293,210.915 283.375,211.300 283.476 M324.173 295.800 C 324.173 301.080,324.230 303.185,324.299 300.477 C 324.368 297.769,324.368 293.449,324.299 290.877 C 324.229 288.305,324.172 290.520,324.173 295.800 M17.361 299.600 C 17.361 303.010,17.422 304.405,17.497 302.700 C 17.572 300.995,17.572 298.205,17.497 296.500 C 17.422 294.795,17.361 296.190,17.361 299.600 " stroke="none" fill="#f7e769" fill-rule="evenodd"></path><path id="path1" d="M82.000 186.473 C 80.570 186.623,68.051 186.750,54.179 186.754 C 24.023 186.763,23.906 186.781,20.353 192.000 C 18.645 194.509,18.646 194.458,18.651 250.800 C 18.655 305.752,18.693 307.326,20.054 309.262 C 20.464 309.846,20.800 310.521,20.800 310.762 C 20.800 311.003,20.960 311.200,21.156 311.200 C 21.352 311.200,22.207 311.826,23.056 312.591 C 23.905 313.356,25.230 314.099,26.000 314.243 C 26.770 314.387,27.635 314.691,27.922 314.920 C 28.701 315.539,311.088 315.872,311.705 315.255 C 311.955 315.005,312.543 314.800,313.011 314.800 C 314.851 314.800,318.851 311.424,320.593 308.400 C 321.392 307.014,321.400 306.425,321.400 251.200 L 321.400 195.400 320.508 193.590 C 319.128 190.790,316.171 188.270,312.723 186.955 C 310.914 186.265,88.404 185.800,82.000 186.473 M51.209 221.605 C 52.028 222.043,52.794 224.268,52.798 226.220 C 52.799 226.891,52.970 227.611,53.177 227.820 C 53.384 228.029,53.732 229.315,53.951 230.678 C 54.170 232.041,54.547 233.527,54.790 233.980 C 55.032 234.434,55.344 236.016,55.482 237.498 C 55.620 238.979,55.973 240.431,56.267 240.724 C 56.560 241.017,56.804 241.829,56.810 242.529 C 56.815 243.228,57.010 244.520,57.244 245.400 C 57.478 246.280,57.923 248.170,58.234 249.600 C 58.544 251.030,58.956 252.477,59.150 252.816 C 59.344 253.155,59.635 254.595,59.797 256.016 C 59.959 257.437,60.284 258.960,60.519 259.400 C 60.754 259.840,61.175 261.370,61.456 262.800 C 61.737 264.230,62.175 266.456,62.431 267.746 C 62.901 270.122,63.581 270.227,63.594 267.926 C 63.597 267.335,63.795 266.345,64.034 265.726 C 64.272 265.107,64.640 263.539,64.852 262.242 C 65.063 260.945,65.498 259.510,65.818 259.053 C 66.138 258.596,66.401 257.677,66.402 257.011 C 66.404 256.345,66.649 255.331,66.948 254.759 C 67.247 254.186,67.613 252.905,67.762 251.913 C 67.911 250.920,68.290 249.769,68.604 249.354 C 68.918 248.939,69.180 247.916,69.187 247.080 C 69.194 246.244,69.449 245.074,69.754 244.480 C 70.059 243.886,70.521 242.368,70.781 241.107 C 71.041 239.846,71.422 238.710,71.627 238.583 C 71.832 238.457,72.006 237.778,72.014 237.076 C 72.021 236.374,72.375 235.080,72.800 234.200 C 73.225 233.320,73.580 232.060,73.589 231.400 C 73.598 230.740,73.867 229.697,74.188 229.083 C 74.508 228.469,74.879 227.299,75.012 226.483 C 75.804 221.624,76.369 221.214,82.271 221.206 C 87.566 221.199,88.800 221.764,88.800 224.191 C 88.800 224.677,89.160 226.121,89.600 227.400 C 90.040 228.679,90.400 230.111,90.400 230.583 C 90.400 231.054,90.583 231.623,90.807 231.847 C 91.031 232.071,91.416 233.412,91.662 234.827 C 91.909 236.242,92.355 237.755,92.655 238.189 C 92.955 238.623,93.200 239.487,93.200 240.109 C 93.200 240.731,93.449 241.726,93.753 242.320 C 94.057 242.914,94.435 244.180,94.593 245.133 C 94.752 246.086,95.132 247.346,95.438 247.933 C 95.744 248.520,95.996 249.635,95.998 250.411 C 95.999 251.187,96.254 252.185,96.564 252.628 C 96.875 253.071,97.319 254.461,97.551 255.718 C 97.783 256.975,98.141 258.317,98.346 258.701 C 98.551 259.086,98.848 260.437,99.006 261.705 C 99.164 262.973,99.435 264.098,99.607 264.205 C 99.780 264.311,100.049 265.502,100.206 266.850 C 100.493 269.322,101.181 269.469,101.194 267.060 C 101.197 266.434,101.459 265.354,101.776 264.660 C 102.093 263.967,102.523 262.320,102.732 261.000 C 102.942 259.680,103.298 258.060,103.524 257.400 C 104.186 255.469,104.823 252.809,105.375 249.675 C 105.659 248.066,106.095 246.545,106.345 246.295 C 106.595 246.045,106.800 245.375,106.800 244.807 C 106.800 244.239,107.070 242.790,107.400 241.587 C 107.730 240.384,108.197 238.410,108.437 237.200 C 108.677 235.990,109.015 234.820,109.188 234.600 C 109.360 234.380,109.632 233.120,109.792 231.800 C 109.952 230.481,110.311 228.951,110.589 228.400 C 110.868 227.850,111.224 226.522,111.380 225.448 C 111.984 221.305,112.298 221.107,118.000 221.283 L 121.800 221.400 121.922 223.078 C 121.992 224.043,121.780 225.265,121.422 225.958 C 121.080 226.619,120.800 227.574,120.800 228.080 C 120.800 228.586,120.453 230.080,120.029 231.400 C 118.973 234.684,118.077 237.924,117.762 239.600 C 117.616 240.370,117.251 241.355,116.949 241.789 C 116.647 242.223,116.399 243.303,116.398 244.189 C 116.396 245.075,116.140 246.288,115.829 246.885 C 115.518 247.482,115.057 248.964,114.805 250.178 C 114.552 251.392,114.178 252.490,113.973 252.617 C 113.768 252.743,113.599 253.512,113.598 254.324 C 113.596 255.136,113.311 256.340,112.964 257.000 C 112.617 257.660,112.162 259.247,111.953 260.526 C 111.745 261.806,111.405 263.156,111.199 263.526 C 110.789 264.263,109.800 267.860,109.147 270.985 C 108.919 272.076,108.478 273.462,108.166 274.065 C 107.855 274.667,107.600 275.718,107.600 276.400 C 107.600 277.082,107.354 278.126,107.053 278.720 C 106.753 279.314,106.378 280.520,106.220 281.400 C 105.727 284.142,105.241 284.400,100.561 284.400 C 96.040 284.400,95.200 283.960,95.200 281.591 C 95.200 281.024,95.015 280.375,94.789 280.149 C 94.563 279.923,94.195 278.601,93.971 277.211 C 93.747 275.821,93.302 274.310,92.982 273.853 C 92.662 273.396,92.400 272.426,92.400 271.697 C 92.400 270.968,92.150 269.973,91.843 269.486 C 91.537 268.999,91.160 267.706,91.006 266.614 C 90.852 265.522,90.472 264.267,90.163 263.825 C 89.853 263.383,89.599 262.387,89.598 261.611 C 89.596 260.835,89.324 259.681,88.994 259.047 C 88.663 258.413,88.279 257.153,88.141 256.247 C 88.002 255.341,87.661 254.148,87.383 253.595 C 87.105 253.042,86.747 251.692,86.588 250.595 C 86.429 249.498,86.140 248.400,85.946 248.155 C 85.752 247.910,85.406 246.700,85.178 245.465 C 84.950 244.231,84.503 242.721,84.184 242.110 C 83.866 241.500,83.604 240.426,83.602 239.724 C 83.601 239.022,83.436 238.346,83.235 238.222 C 83.034 238.097,82.744 237.232,82.590 236.298 C 82.201 233.942,81.628 233.012,81.612 234.713 C 81.605 235.435,81.342 236.643,81.027 237.398 C 80.712 238.152,80.332 239.631,80.183 240.685 C 80.035 241.738,79.663 242.999,79.357 243.486 C 79.050 243.973,78.800 244.743,78.800 245.196 C 78.800 245.649,78.440 247.044,78.000 248.296 C 77.560 249.548,77.199 250.939,77.198 251.386 C 77.196 251.834,76.926 252.716,76.598 253.346 C 76.269 253.976,75.992 254.966,75.982 255.546 C 75.973 256.126,75.689 257.320,75.353 258.200 C 75.016 259.080,74.566 260.610,74.354 261.600 C 74.141 262.590,73.817 263.677,73.633 264.015 C 73.449 264.354,73.169 265.434,73.011 266.415 C 72.853 267.397,72.497 268.560,72.220 269.000 C 71.944 269.440,71.593 270.700,71.441 271.800 C 71.289 272.900,70.921 274.340,70.625 275.000 C 70.102 276.163,69.617 277.857,68.733 281.600 C 68.076 284.379,68.034 284.400,62.942 284.400 C 58.580 284.400,58.368 284.361,58.047 283.500 C 57.038 280.799,56.654 279.592,56.168 277.600 C 55.253 273.853,54.713 271.887,53.942 269.498 C 53.534 268.233,53.200 266.651,53.200 265.984 C 53.200 265.317,52.950 264.373,52.643 263.886 C 52.337 263.399,51.960 262.100,51.806 261.000 C 51.651 259.900,51.379 258.820,51.200 258.600 C 51.020 258.380,50.679 257.140,50.440 255.845 C 50.202 254.550,49.843 253.290,49.642 253.045 C 49.441 252.800,49.148 251.520,48.989 250.200 C 48.831 248.880,48.521 247.575,48.301 247.299 C 48.081 247.023,47.662 245.763,47.372 244.499 C 46.534 240.858,45.968 238.694,45.515 237.400 C 45.284 236.740,44.890 235.120,44.639 233.800 C 44.388 232.480,43.962 231.007,43.691 230.526 C 43.421 230.046,43.200 229.202,43.200 228.652 C 43.200 228.102,42.997 227.145,42.749 226.526 C 41.851 224.286,41.664 222.393,42.278 221.779 C 42.968 221.089,49.990 220.952,51.209 221.605 M173.986 221.974 C 174.621 223.160,174.509 228.899,173.832 229.824 C 173.287 230.569,172.570 230.604,155.732 230.691 L 138.200 230.781 138.092 238.991 L 137.984 247.200 154.363 247.200 C 168.720 247.200,170.820 247.278,171.371 247.829 C 172.159 248.616,172.237 254.108,171.482 255.600 L 170.977 256.600 154.588 256.800 L 138.200 257.000 138.200 266.000 L 138.200 275.000 156.364 275.104 C 168.964 275.176,174.692 275.345,175.064 275.653 C 175.621 276.115,175.851 282.481,175.357 283.767 C 175.014 284.661,129.181 284.741,128.441 283.849 C 127.782 283.055,127.775 222.553,128.434 221.759 C 129.280 220.740,173.437 220.948,173.986 221.974 M217.218 222.036 C 217.758 222.385,218.758 222.781,219.440 222.914 C 220.884 223.196,223.600 224.714,223.600 225.240 C 223.600 225.438,223.827 225.600,224.104 225.600 C 224.382 225.600,225.057 226.159,225.604 226.842 C 226.152 227.525,226.789 228.290,227.021 228.542 C 231.308 233.210,230.571 243.285,225.568 248.394 C 223.523 250.483,223.371 251.355,224.980 251.759 C 231.120 253.300,235.382 267.636,231.393 273.331 C 231.067 273.797,230.800 274.504,230.800 274.902 C 230.800 275.300,230.530 275.729,230.200 275.855 C 229.870 275.982,229.595 276.291,229.588 276.543 C 229.561 277.587,225.029 281.600,223.876 281.600 C 223.558 281.600,223.086 281.856,222.826 282.169 C 222.566 282.482,221.599 282.862,220.677 283.014 C 219.755 283.166,218.748 283.495,218.439 283.745 C 218.046 284.064,213.038 284.235,201.736 284.317 L 185.593 284.434 185.197 283.391 C 184.627 281.892,184.658 223.012,185.230 221.944 C 185.821 220.840,215.503 220.925,217.218 222.036 M277.080 222.100 C 277.784 222.485,278.649 222.800,279.002 222.800 C 281.319 222.800,286.901 226.960,287.454 229.100 C 287.582 229.595,287.839 230.000,288.025 230.000 C 289.375 230.000,290.189 233.833,290.192 240.200 L 290.194 246.600 288.754 249.219 C 287.295 251.875,284.124 255.600,283.323 255.600 C 283.083 255.600,282.782 255.870,282.655 256.200 C 282.529 256.530,282.100 256.800,281.702 256.800 C 281.304 256.800,280.564 257.090,280.059 257.444 C 278.059 258.845,274.474 259.296,263.313 259.551 L 252.426 259.800 252.228 271.542 C 252.091 279.581,251.883 283.460,251.565 283.842 C 250.865 284.686,243.485 284.628,242.629 283.771 C 241.621 282.764,241.677 223.020,242.687 221.904 C 243.695 220.790,275.010 220.968,277.080 222.100 M252.497 230.700 C 252.333 230.755,252.234 235.165,252.277 240.500 L 252.353 250.200 262.516 250.200 C 269.498 250.200,272.854 250.058,273.239 249.746 C 273.548 249.497,274.385 249.167,275.100 249.014 C 275.815 248.862,276.400 248.583,276.400 248.395 C 276.400 248.207,276.760 247.940,277.200 247.800 C 277.640 247.660,278.000 247.283,278.000 246.960 C 278.000 246.638,278.259 246.276,278.576 246.154 C 278.892 246.033,279.269 245.396,279.413 244.740 C 279.557 244.083,279.927 243.063,280.235 242.473 C 281.770 239.530,279.340 233.654,275.790 231.725 C 274.360 230.948,254.371 230.068,252.497 230.700 M194.800 239.000 L 194.800 247.200 201.700 247.199 C 211.099 247.197,218.317 245.754,218.387 243.863 C 218.394 243.678,218.760 243.069,219.200 242.509 C 220.494 240.864,220.317 236.728,218.853 234.400 C 216.754 231.060,215.713 230.800,204.456 230.800 L 194.800 230.800 194.800 239.000 M194.800 265.782 L 194.800 275.285 205.558 275.143 C 215.118 275.016,216.402 274.922,217.090 274.300 C 217.515 273.915,218.063 273.600,218.307 273.600 C 221.009 273.600,223.939 265.016,222.048 262.640 C 221.856 262.398,221.568 261.777,221.409 261.261 C 220.950 259.762,219.324 258.324,216.800 257.182 C 216.184 256.903,211.770 256.643,205.300 256.504 L 194.800 256.279 194.800 265.782 " stroke="none" fill="#a39d4b" fill-rule="evenodd"></path><path id="path2" d="M0.000 200.000 L 0.000 400.000 200.000 400.000 L 400.000 400.000 400.000 200.000 L 400.000 0.000 200.000 0.000 L 0.000 0.000 0.000 200.000 M281.459 22.874 C 286.510 27.726,289.364 30.440,295.193 35.937 C 300.797 41.222,305.139 45.325,311.767 51.600 C 316.940 56.498,321.956 61.239,326.000 65.054 C 335.971 74.461,338.223 76.596,343.250 81.403 C 345.093 83.165,349.657 87.485,353.393 91.003 C 357.129 94.521,360.742 97.940,361.422 98.600 C 362.102 99.260,363.545 100.600,364.629 101.578 C 365.713 102.556,366.740 103.584,366.910 103.861 C 367.406 104.667,367.287 350.021,366.789 352.288 C 365.108 359.953,360.721 366.168,355.056 368.908 C 349.324 371.681,363.653 371.400,228.200 371.400 L 106.600 371.400 103.186 370.152 C 92.587 366.278,86.025 359.911,83.556 351.105 C 82.872 348.668,82.800 346.882,82.800 332.456 L 82.800 316.502 81.268 316.257 C 80.425 316.123,67.902 316.012,53.438 316.012 C 28.269 316.011,27.065 315.978,25.384 315.234 C 21.935 313.708,19.295 310.922,18.100 307.544 L 17.200 305.000 17.200 250.692 L 17.200 196.384 18.211 193.892 C 18.946 192.079,19.831 190.827,21.459 189.297 C 25.663 185.347,23.401 185.600,54.571 185.600 C 75.247 185.600,81.956 185.484,82.320 185.120 C 82.690 184.750,82.801 168.365,82.803 113.820 C 82.806 45.991,82.837 42.899,83.548 40.600 C 86.830 29.979,96.725 22.081,108.800 20.444 C 109.790 20.310,148.427 20.209,194.659 20.221 L 278.719 20.241 281.459 22.874 M43.625 222.367 C 43.035 222.750,43.205 223.850,44.808 230.000 C 45.066 230.990,45.552 232.880,45.887 234.200 C 46.221 235.520,46.765 237.475,47.094 238.544 C 47.424 239.612,47.923 241.502,48.203 242.744 C 48.483 243.985,49.182 246.678,49.756 248.729 C 50.330 250.780,50.800 252.733,50.800 253.068 C 50.800 253.404,51.058 254.246,51.373 254.940 C 51.688 255.633,52.223 257.460,52.562 259.000 C 53.273 262.233,55.738 271.513,56.121 272.400 C 56.263 272.730,56.633 274.170,56.943 275.600 C 58.600 283.242,58.853 283.569,63.129 283.587 C 66.702 283.603,67.130 283.264,68.115 279.634 C 68.508 278.186,69.169 275.740,69.582 274.200 C 69.996 272.660,70.633 270.410,70.998 269.200 C 71.363 267.990,71.890 266.010,72.169 264.800 C 72.448 263.590,72.961 261.700,73.309 260.600 C 73.656 259.500,74.211 257.610,74.541 256.400 C 74.871 255.190,75.515 252.981,75.971 251.492 C 76.427 250.002,76.800 248.433,76.800 248.005 C 76.800 247.577,77.053 246.636,77.362 245.914 C 77.847 244.778,79.340 239.643,80.932 233.631 C 81.189 232.658,81.605 231.794,81.856 231.712 C 82.453 231.516,84.335 237.013,85.584 242.600 C 85.781 243.480,86.422 245.820,87.009 247.800 C 87.595 249.780,88.318 252.390,88.615 253.600 C 88.913 254.810,89.541 257.150,90.011 258.800 C 91.089 262.580,91.792 265.152,92.580 268.200 C 92.922 269.520,93.393 271.140,93.627 271.800 C 93.861 272.460,94.577 275.052,95.218 277.559 C 96.715 283.416,96.885 283.600,100.788 283.600 L 103.853 283.600 104.675 282.100 C 105.127 281.275,105.610 279.718,105.749 278.640 C 105.888 277.563,106.160 276.483,106.354 276.240 C 106.549 275.998,106.891 274.990,107.114 274.000 C 107.338 273.010,107.920 270.760,108.408 269.000 C 108.897 267.240,109.546 264.810,109.852 263.600 C 110.157 262.390,110.655 260.590,110.958 259.600 C 111.261 258.610,111.818 256.630,112.196 255.200 C 112.573 253.770,113.214 251.430,113.620 250.000 C 115.159 244.579,117.178 236.946,117.430 235.600 C 117.574 234.830,117.825 234.020,117.987 233.800 C 118.892 232.569,120.954 222.741,120.386 222.361 C 119.466 221.744,114.032 222.102,113.591 222.809 C 113.087 223.617,111.600 228.559,111.600 229.427 C 111.600 229.813,111.339 231.046,111.019 232.165 C 110.700 233.284,110.084 235.640,109.651 237.400 C 109.219 239.160,108.664 241.410,108.418 242.400 C 107.096 247.731,105.285 255.247,104.612 258.200 C 103.359 263.689,101.496 271.067,101.128 271.991 C 100.551 273.442,100.145 272.498,99.025 267.098 C 97.939 261.868,97.507 260.112,95.899 254.400 C 95.248 252.090,94.560 249.432,94.369 248.494 C 94.178 247.556,93.837 246.442,93.610 246.019 C 93.383 245.595,92.937 244.113,92.618 242.724 C 92.299 241.336,91.738 239.210,91.371 238.000 C 91.003 236.790,90.441 234.720,90.121 233.400 C 89.801 232.080,89.380 230.699,89.185 230.331 C 88.991 229.963,88.556 228.471,88.218 227.015 C 87.880 225.559,87.320 223.819,86.973 223.149 L 86.343 221.929 82.190 222.064 C 77.706 222.211,77.331 222.376,76.779 224.451 C 76.390 225.911,75.198 230.083,74.164 233.600 C 73.808 234.810,73.189 237.060,72.788 238.600 C 72.387 240.140,71.881 241.940,71.664 242.600 C 71.447 243.260,70.997 244.790,70.664 246.000 C 70.331 247.210,69.685 249.419,69.229 250.908 C 68.773 252.398,68.400 253.882,68.400 254.207 C 68.400 254.531,68.059 255.833,67.641 257.098 C 66.353 261.006,65.739 263.224,64.589 268.114 C 63.127 274.332,62.225 273.673,60.646 265.237 C 60.333 263.567,59.418 259.410,58.612 256.000 C 57.806 252.590,56.799 248.270,56.374 246.400 C 55.949 244.530,55.326 241.830,54.990 240.400 C 54.654 238.970,54.115 236.485,53.792 234.879 C 53.469 233.272,53.044 231.652,52.846 231.279 C 52.649 230.905,52.298 229.376,52.067 227.880 C 51.836 226.384,51.321 224.494,50.923 223.680 L 50.200 222.200 47.200 222.097 C 45.550 222.041,43.941 222.162,43.625 222.367 M129.900 222.432 C 128.751 223.101,128.823 282.570,129.974 283.186 C 130.479 283.457,138.165 283.600,152.160 283.600 C 176.676 283.600,174.400 284.005,174.400 279.640 C 174.400 276.197,175.433 276.372,155.362 276.413 C 145.766 276.432,137.799 276.333,137.657 276.192 C 137.196 275.732,136.967 257.113,137.412 256.223 C 137.815 255.417,138.168 255.396,154.212 255.200 L 170.600 255.000 170.600 251.800 L 170.600 248.600 154.345 248.496 C 141.577 248.414,137.998 248.279,137.658 247.870 C 137.023 247.105,136.989 230.537,137.620 229.775 C 138.022 229.292,140.768 229.200,154.875 229.200 C 165.675 229.200,171.928 229.052,172.426 228.786 C 173.451 228.238,173.560 223.617,172.571 222.629 C 171.811 221.868,131.190 221.681,129.900 222.432 M186.700 222.254 C 186.315 222.367,185.999 222.760,185.998 223.129 C 185.883 272.710,185.994 282.606,186.666 283.098 C 188.857 284.700,217.051 283.355,221.794 281.422 C 234.318 276.317,235.206 255.228,223.026 252.171 C 221.586 251.809,221.426 250.130,222.751 249.276 C 233.485 242.359,229.636 226.493,216.400 223.095 C 213.465 222.342,188.790 221.643,186.700 222.254 M243.754 222.451 C 243.193 223.322,243.082 281.148,243.638 282.493 C 244.079 283.557,244.208 283.600,246.969 283.600 C 251.044 283.600,250.800 284.402,250.800 271.000 C 250.800 262.480,250.929 259.231,251.280 258.880 C 251.620 258.540,254.039 258.398,259.580 258.394 C 276.466 258.380,281.498 257.154,285.489 252.084 C 292.519 243.154,290.044 228.588,280.804 224.511 C 276.095 222.433,244.884 220.698,243.754 222.451 M213.200 229.821 C 221.039 231.442,223.945 239.565,218.629 244.999 C 215.971 247.716,214.298 248.036,203.394 247.908 L 194.200 247.800 194.000 239.600 C 193.890 235.090,193.953 230.905,194.139 230.300 L 194.478 229.200 202.339 229.200 C 207.884 229.201,211.084 229.383,213.200 229.821 M273.777 229.838 C 282.984 232.151,284.378 245.102,275.936 249.899 C 273.319 251.386,254.921 252.386,251.826 251.210 L 250.800 250.820 250.800 240.490 C 250.800 232.989,250.931 230.029,251.280 229.680 C 252.066 228.894,270.534 229.024,273.777 229.838 M215.862 255.796 C 226.659 259.003,226.186 273.443,215.200 275.967 C 212.843 276.509,194.532 276.538,194.200 276.000 C 193.879 275.481,193.881 256.115,194.203 255.596 C 194.624 254.913,213.476 255.087,215.862 255.796 " stroke="none" fill="#fbfbfb" fill-rule="evenodd"></path><path id="path3" d="M278.598 22.477 C 277.926 25.181,278.609 77.000,279.340 78.800 C 282.389 86.308,287.563 92.469,294.839 97.257 C 298.427 99.618,304.414 102.798,305.277 102.802 C 305.565 102.804,306.340 103.119,307.000 103.502 C 308.211 104.206,363.823 104.861,365.567 104.191 C 366.045 104.008,365.726 103.522,364.195 102.107 C 363.098 101.092,359.433 97.637,356.052 94.431 C 352.670 91.224,349.138 87.880,348.203 87.000 C 337.330 76.768,334.022 73.644,330.602 70.378 C 328.401 68.276,325.273 65.306,323.651 63.778 C 322.029 62.250,319.396 59.740,317.801 58.200 C 316.207 56.660,314.204 54.798,313.351 54.061 C 312.498 53.325,309.910 50.893,307.600 48.658 C 305.290 46.422,300.250 41.595,296.400 37.930 C 292.550 34.265,287.690 29.625,285.600 27.618 C 283.510 25.611,281.131 23.426,280.313 22.762 L 278.827 21.554 278.598 22.477 M26.039 186.503 C 23.192 187.624,19.884 190.858,18.588 193.788 L 17.600 196.023 17.600 250.534 C 17.600 304.352,17.610 305.075,18.416 307.462 C 19.601 310.971,22.400 313.747,26.200 315.184 L 28.600 316.092 170.834 316.146 L 313.068 316.200 315.434 314.748 C 318.583 312.816,321.431 309.309,322.020 306.638 C 322.704 303.534,322.332 196.388,321.629 194.217 C 320.866 191.859,316.417 187.640,313.491 186.500 L 311.181 185.600 169.691 185.626 L 28.200 185.652 26.039 186.503 M312.723 186.955 C 316.171 188.270,319.128 190.790,320.508 193.590 L 321.400 195.400 321.400 251.200 C 321.400 306.425,321.392 307.014,320.593 308.400 C 318.851 311.424,314.851 314.800,313.011 314.800 C 312.543 314.800,311.955 315.005,311.705 315.255 C 311.088 315.872,28.701 315.539,27.922 314.920 C 27.635 314.691,26.770 314.387,26.000 314.243 C 25.230 314.099,23.905 313.356,23.056 312.591 C 22.207 311.826,21.352 311.200,21.156 311.200 C 20.960 311.200,20.800 311.003,20.800 310.762 C 20.800 310.521,20.464 309.846,20.054 309.262 C 18.693 307.326,18.655 305.752,18.651 250.800 C 18.646 194.458,18.645 194.509,20.353 192.000 C 23.906 186.781,24.023 186.763,54.179 186.754 C 68.051 186.750,80.570 186.623,82.000 186.473 C 88.404 185.800,310.914 186.265,312.723 186.955 M42.278 221.779 C 41.664 222.393,41.851 224.286,42.749 226.526 C 42.997 227.145,43.200 228.102,43.200 228.652 C 43.200 229.202,43.421 230.046,43.691 230.526 C 43.962 231.007,44.388 232.480,44.639 233.800 C 44.890 235.120,45.284 236.740,45.515 237.400 C 45.968 238.694,46.534 240.858,47.372 244.499 C 47.662 245.763,48.081 247.023,48.301 247.299 C 48.521 247.575,48.831 248.880,48.989 250.200 C 49.148 251.520,49.441 252.800,49.642 253.045 C 49.843 253.290,50.202 254.550,50.440 255.845 C 50.679 257.140,51.020 258.380,51.200 258.600 C 51.379 258.820,51.651 259.900,51.806 261.000 C 51.960 262.100,52.337 263.399,52.643 263.886 C 52.950 264.373,53.200 265.317,53.200 265.984 C 53.200 266.651,53.534 268.233,53.942 269.498 C 54.713 271.887,55.253 273.853,56.168 277.600 C 56.654 279.592,57.038 280.799,58.047 283.500 C 58.368 284.361,58.580 284.400,62.942 284.400 C 68.034 284.400,68.076 284.379,68.733 281.600 C 69.617 277.857,70.102 276.163,70.625 275.000 C 70.921 274.340,71.289 272.900,71.441 271.800 C 71.593 270.700,71.944 269.440,72.220 269.000 C 72.497 268.560,72.853 267.397,73.011 266.415 C 73.169 265.434,73.449 264.354,73.633 264.015 C 73.817 263.677,74.141 262.590,74.354 261.600 C 74.566 260.610,75.016 259.080,75.353 258.200 C 75.689 257.320,75.973 256.126,75.982 255.546 C 75.992 254.966,76.269 253.976,76.598 253.346 C 76.926 252.716,77.196 251.834,77.198 251.386 C 77.199 250.939,77.560 249.548,78.000 248.296 C 78.440 247.044,78.800 245.649,78.800 245.196 C 78.800 244.743,79.050 243.973,79.357 243.486 C 79.663 242.999,80.035 241.738,80.183 240.685 C 80.332 239.631,80.712 238.152,81.027 237.398 C 81.342 236.643,81.605 235.435,81.612 234.713 C 81.628 233.012,82.201 233.942,82.590 236.298 C 82.744 237.232,83.034 238.097,83.235 238.222 C 83.436 238.346,83.601 239.022,83.602 239.724 C 83.604 240.426,83.866 241.500,84.184 242.110 C 84.503 242.721,84.950 244.231,85.178 245.465 C 85.406 246.700,85.752 247.910,85.946 248.155 C 86.140 248.400,86.429 249.498,86.588 250.595 C 86.747 251.692,87.105 253.042,87.383 253.595 C 87.661 254.148,88.002 255.341,88.141 256.247 C 88.279 257.153,88.663 258.413,88.994 259.047 C 89.324 259.681,89.596 260.835,89.598 261.611 C 89.599 262.387,89.853 263.383,90.163 263.825 C 90.472 264.267,90.852 265.522,91.006 266.614 C 91.160 267.706,91.537 268.999,91.843 269.486 C 92.150 269.973,92.400 270.968,92.400 271.697 C 92.400 272.426,92.662 273.396,92.982 273.853 C 93.302 274.310,93.747 275.821,93.971 277.211 C 94.195 278.601,94.563 279.923,94.789 280.149 C 95.015 280.375,95.200 281.024,95.200 281.591 C 95.200 283.960,96.040 284.400,100.561 284.400 C 105.241 284.400,105.727 284.142,106.220 281.400 C 106.378 280.520,106.753 279.314,107.053 278.720 C 107.354 278.126,107.600 277.082,107.600 276.400 C 107.600 275.718,107.855 274.667,108.166 274.065 C 108.478 273.462,108.919 272.076,109.147 270.985 C 109.800 267.860,110.789 264.263,111.199 263.526 C 111.405 263.156,111.745 261.806,111.953 260.526 C 112.162 259.247,112.617 257.660,112.964 257.000 C 113.311 256.340,113.596 255.136,113.598 254.324 C 113.599 253.512,113.768 252.743,113.973 252.617 C 114.178 252.490,114.552 251.392,114.805 250.178 C 115.057 248.964,115.518 247.482,115.829 246.885 C 116.140 246.288,116.396 245.075,116.398 244.189 C 116.399 243.303,116.647 242.223,116.949 241.789 C 117.251 241.355,117.616 240.370,117.762 239.600 C 118.077 237.924,118.973 234.684,120.029 231.400 C 120.453 230.080,120.800 228.586,120.800 228.080 C 120.800 227.574,121.080 226.619,121.422 225.958 C 121.780 225.265,121.992 224.043,121.922 223.078 L 121.800 221.400 118.000 221.283 C 112.298 221.107,111.984 221.305,111.380 225.448 C 111.224 226.522,110.868 227.850,110.589 228.400 C 110.311 228.951,109.952 230.481,109.792 231.800 C 109.632 233.120,109.360 234.380,109.188 234.600 C 109.015 234.820,108.677 235.990,108.437 237.200 C 108.197 238.410,107.730 240.384,107.400 241.587 C 107.070 242.790,106.800 244.239,106.800 244.807 C 106.800 245.375,106.595 246.045,106.345 246.295 C 106.095 246.545,105.659 248.066,105.375 249.675 C 104.823 252.809,104.186 255.469,103.524 257.400 C 103.298 258.060,102.942 259.680,102.732 261.000 C 102.523 262.320,102.093 263.967,101.776 264.660 C 101.459 265.354,101.197 266.434,101.194 267.060 C 101.181 269.469,100.493 269.322,100.206 266.850 C 100.049 265.502,99.780 264.311,99.607 264.205 C 99.435 264.098,99.164 262.973,99.006 261.705 C 98.848 260.437,98.551 259.086,98.346 258.701 C 98.141 258.317,97.783 256.975,97.551 255.718 C 97.319 254.461,96.875 253.071,96.564 252.628 C 96.254 252.185,95.999 251.187,95.998 250.411 C 95.996 249.635,95.744 248.520,95.438 247.933 C 95.132 247.346,94.752 246.086,94.593 245.133 C 94.435 244.180,94.057 242.914,93.753 242.320 C 93.449 241.726,93.200 240.731,93.200 240.109 C 93.200 239.487,92.955 238.623,92.655 238.189 C 92.355 237.755,91.909 236.242,91.662 234.827 C 91.416 233.412,91.031 232.071,90.807 231.847 C 90.583 231.623,90.400 231.054,90.400 230.583 C 90.400 230.111,90.040 228.679,89.600 227.400 C 89.160 226.121,88.800 224.677,88.800 224.191 C 88.800 221.764,87.566 221.199,82.271 221.206 C 76.369 221.214,75.804 221.624,75.012 226.483 C 74.879 227.299,74.508 228.469,74.188 229.083 C 73.867 229.697,73.598 230.740,73.589 231.400 C 73.580 232.060,73.225 233.320,72.800 234.200 C 72.375 235.080,72.021 236.374,72.014 237.076 C 72.006 237.778,71.832 238.457,71.627 238.583 C 71.422 238.710,71.041 239.846,70.781 241.107 C 70.521 242.368,70.059 243.886,69.754 244.480 C 69.449 245.074,69.194 246.244,69.187 247.080 C 69.180 247.916,68.918 248.939,68.604 249.354 C 68.290 249.769,67.911 250.920,67.762 251.913 C 67.613 252.905,67.247 254.186,66.948 254.759 C 66.649 255.331,66.404 256.345,66.402 257.011 C 66.401 257.677,66.138 258.596,65.818 259.053 C 65.498 259.510,65.063 260.945,64.852 262.242 C 64.640 263.539,64.272 265.107,64.034 265.726 C 63.795 266.345,63.597 267.335,63.594 267.926 C 63.581 270.227,62.901 270.122,62.431 267.746 C 62.175 266.456,61.737 264.230,61.456 262.800 C 61.175 261.370,60.754 259.840,60.519 259.400 C 60.284 258.960,59.959 257.437,59.797 256.016 C 59.635 254.595,59.344 253.155,59.150 252.816 C 58.956 252.477,58.544 251.030,58.234 249.600 C 57.923 248.170,57.478 246.280,57.244 245.400 C 57.010 244.520,56.815 243.228,56.810 242.529 C 56.804 241.829,56.560 241.017,56.267 240.724 C 55.973 240.431,55.620 238.979,55.482 237.498 C 55.344 236.016,55.032 234.434,54.790 233.980 C 54.547 233.527,54.170 232.041,53.951 230.678 C 53.732 229.315,53.384 228.029,53.177 227.820 C 52.970 227.611,52.799 226.891,52.798 226.220 C 52.794 224.268,52.028 222.043,51.209 221.605 C 49.990 220.952,42.968 221.089,42.278 221.779 M128.434 221.759 C 127.775 222.553,127.782 283.055,128.441 283.849 C 129.181 284.741,175.014 284.661,175.357 283.767 C 175.851 282.481,175.621 276.115,175.064 275.653 C 174.692 275.345,168.964 275.176,156.364 275.104 L 138.200 275.000 138.200 266.000 L 138.200 257.000 154.588 256.800 L 170.977 256.600 171.482 255.600 C 172.237 254.108,172.159 248.616,171.371 247.829 C 170.820 247.278,168.720 247.200,154.363 247.200 L 137.984 247.200 138.092 238.991 L 138.200 230.781 155.732 230.691 C 176.160 230.585,174.400 231.037,174.400 225.897 C 174.400 220.666,177.032 221.200,151.235 221.200 C 132.600 221.200,128.821 221.293,128.434 221.759 M185.230 221.944 C 184.658 223.012,184.627 281.892,185.197 283.391 L 185.593 284.434 201.736 284.317 C 213.038 284.235,218.046 284.064,218.439 283.745 C 218.748 283.495,219.755 283.166,220.677 283.014 C 221.599 282.862,222.566 282.482,222.826 282.169 C 223.086 281.856,223.558 281.600,223.876 281.600 C 225.029 281.600,229.561 277.587,229.588 276.543 C 229.595 276.291,229.870 275.982,230.200 275.855 C 230.530 275.729,230.800 275.300,230.800 274.902 C 230.800 274.504,231.067 273.797,231.393 273.331 C 235.382 267.636,231.120 253.300,224.980 251.759 C 223.371 251.355,223.523 250.483,225.568 248.394 C 230.571 243.285,231.308 233.210,227.021 228.542 C 226.789 228.290,226.152 227.525,225.604 226.842 C 225.057 226.159,224.382 225.600,224.104 225.600 C 223.827 225.600,223.600 225.438,223.600 225.240 C 223.600 224.714,220.884 223.196,219.440 222.914 C 218.758 222.781,217.758 222.385,217.218 222.036 C 215.503 220.925,185.821 220.840,185.230 221.944 M242.687 221.904 C 241.677 223.020,241.621 282.764,242.629 283.771 C 243.485 284.628,250.865 284.686,251.565 283.842 C 251.883 283.460,252.091 279.581,252.228 271.542 L 252.426 259.800 263.313 259.551 C 274.474 259.296,278.059 258.845,280.059 257.444 C 280.564 257.090,281.304 256.800,281.702 256.800 C 282.100 256.800,282.529 256.530,282.655 256.200 C 282.782 255.870,283.083 255.600,283.323 255.600 C 284.124 255.600,287.295 251.875,288.754 249.219 L 290.194 246.600 290.192 240.200 C 290.189 233.833,289.375 230.000,288.025 230.000 C 287.839 230.000,287.582 229.595,287.454 229.100 C 286.901 226.960,281.319 222.800,279.002 222.800 C 278.649 222.800,277.784 222.485,277.080 222.100 C 275.010 220.968,243.695 220.790,242.687 221.904 M51.325 223.500 C 51.681 224.325,52.091 225.900,52.236 227.000 C 52.381 228.100,52.727 229.720,53.005 230.600 C 53.283 231.480,53.820 233.640,54.198 235.400 C 54.577 237.160,55.158 239.680,55.491 241.000 C 55.823 242.320,56.333 244.570,56.622 246.000 C 56.912 247.430,57.534 250.130,58.004 252.000 C 58.474 253.870,59.110 256.570,59.418 258.000 C 61.812 269.137,62.519 271.830,63.020 271.722 C 63.376 271.646,64.388 268.146,65.194 264.200 C 65.419 263.100,65.764 261.750,65.962 261.200 C 66.447 259.854,67.734 255.429,68.988 250.800 C 69.554 248.710,70.176 246.460,70.371 245.800 C 70.821 244.272,72.183 239.467,73.262 235.600 C 74.456 231.321,74.996 229.467,76.209 225.488 L 77.280 221.976 82.127 222.088 L 86.975 222.200 87.646 224.000 C 88.015 224.990,88.524 226.610,88.777 227.600 C 90.002 232.390,91.579 238.043,91.783 238.372 C 91.908 238.575,92.361 240.059,92.790 241.670 C 93.219 243.282,94.199 246.850,94.968 249.600 C 95.738 252.350,96.570 255.410,96.818 256.400 C 97.067 257.390,97.516 259.100,97.818 260.200 C 98.119 261.300,98.828 264.349,99.392 266.976 C 99.957 269.603,100.501 271.834,100.600 271.933 C 100.847 272.180,100.915 271.940,102.789 264.200 C 103.695 260.460,104.623 256.680,104.851 255.800 C 105.079 254.920,105.502 253.120,105.790 251.800 C 106.078 250.480,106.710 247.870,107.193 246.000 C 107.677 244.130,108.252 241.790,108.472 240.800 C 108.691 239.810,109.231 237.560,109.671 235.800 C 110.111 234.040,110.733 231.520,111.053 230.200 C 111.373 228.880,112.032 226.540,112.517 225.000 L 113.400 222.200 117.300 222.086 C 121.750 221.955,121.717 221.921,120.639 225.525 C 120.331 226.556,119.449 229.740,118.680 232.600 C 114.946 246.484,114.334 248.742,113.795 250.600 C 113.476 251.700,112.831 254.040,112.362 255.800 C 111.894 257.560,111.284 259.810,111.007 260.800 C 108.097 271.207,106.293 277.825,105.799 279.914 C 105.018 283.212,104.471 283.600,100.600 283.600 C 96.228 283.600,96.168 283.521,94.391 275.294 C 94.188 274.356,93.837 273.242,93.610 272.819 C 93.383 272.395,92.937 270.913,92.618 269.524 C 92.130 267.397,90.457 261.208,88.856 255.600 C 87.853 252.088,85.466 243.534,84.782 241.000 C 82.270 231.703,81.905 230.959,81.187 233.688 C 80.939 234.630,80.012 237.920,79.126 241.000 C 78.241 244.080,77.288 247.590,77.008 248.800 C 76.728 250.010,76.224 251.900,75.886 253.000 C 75.549 254.100,74.975 256.080,74.611 257.400 C 74.247 258.720,73.593 261.060,73.157 262.600 C 71.565 268.234,71.226 269.446,70.588 271.800 C 70.230 273.120,69.607 275.280,69.205 276.600 C 68.802 277.920,68.343 279.720,68.186 280.600 C 67.700 283.305,67.190 283.600,62.987 283.600 C 58.330 283.600,58.562 283.877,56.635 276.000 C 56.339 274.790,55.445 271.370,54.648 268.400 C 53.852 265.430,52.932 261.920,52.604 260.600 C 52.276 259.280,51.755 257.390,51.446 256.400 C 51.137 255.410,50.489 252.890,50.005 250.800 C 49.522 248.710,48.942 246.550,48.716 246.000 C 48.490 245.450,48.057 243.920,47.754 242.600 C 47.450 241.280,46.832 238.850,46.380 237.200 C 45.928 235.550,45.308 233.084,45.004 231.721 C 44.700 230.357,44.285 228.917,44.083 228.521 C 43.532 227.441,42.722 222.850,43.003 222.396 C 43.137 222.178,44.919 222.000,46.963 222.000 L 50.679 222.000 51.325 223.500 M173.357 222.633 C 173.491 222.981,173.600 224.515,173.600 226.043 C 173.600 229.793,174.624 229.600,154.761 229.600 C 138.544 229.600,137.964 229.626,137.687 230.372 C 137.529 230.796,137.490 234.891,137.600 239.472 L 137.800 247.800 154.400 248.000 L 171.000 248.200 171.118 251.338 C 171.291 255.979,172.798 255.600,154.175 255.600 C 144.261 255.600,137.955 255.749,137.809 255.985 C 137.497 256.490,137.495 275.107,137.807 275.612 C 137.956 275.853,144.751 276.005,155.724 276.013 C 169.788 276.023,173.543 276.134,174.100 276.557 C 174.946 277.199,175.117 282.323,174.320 283.120 C 173.493 283.947,129.362 283.798,129.043 282.967 C 128.710 282.100,128.734 222.600,129.067 222.267 C 129.719 221.614,173.104 221.973,173.357 222.633 M216.538 222.808 C 222.411 224.420,225.342 226.705,227.661 231.481 C 230.642 237.620,228.378 246.723,223.203 249.398 C 221.619 250.218,222.024 251.396,224.226 252.370 C 235.441 257.331,234.289 276.231,222.450 281.487 C 217.719 283.588,186.564 284.847,185.843 282.967 C 185.510 282.100,185.534 222.600,185.867 222.267 C 186.616 221.517,213.565 221.993,216.538 222.808 M276.511 222.848 C 287.124 225.585,292.495 235.620,289.009 246.200 C 285.709 256.215,279.700 258.785,259.549 258.796 C 253.588 258.799,252.003 258.914,251.624 259.371 C 251.283 259.782,251.161 262.957,251.187 270.714 C 251.232 284.220,251.431 283.600,247.053 283.600 C 244.351 283.600,243.638 283.475,243.443 282.967 C 243.110 282.100,243.134 222.600,243.467 222.267 C 244.247 221.487,273.207 221.996,276.511 222.848 M194.439 230.327 C 193.919 231.299,193.836 246.322,194.346 247.126 C 195.044 248.227,213.794 247.603,216.195 246.400 C 223.012 242.982,222.030 232.251,214.727 230.372 C 211.073 229.431,194.937 229.396,194.439 230.327 M251.675 229.924 C 251.141 230.284,250.922 250.259,251.447 250.778 C 252.301 251.623,272.752 250.961,274.834 250.021 C 283.283 246.206,283.364 233.350,274.957 230.428 C 273.125 229.791,252.532 229.345,251.675 229.924 M275.790 231.725 C 279.340 233.654,281.770 239.530,280.235 242.473 C 279.927 243.063,279.557 244.083,279.413 244.740 C 279.269 245.396,278.892 246.033,278.576 246.154 C 278.259 246.276,278.000 246.638,278.000 246.960 C 278.000 247.283,277.640 247.660,277.200 247.800 C 276.760 247.940,276.400 248.207,276.400 248.395 C 276.400 248.583,275.815 248.862,275.100 249.014 C 274.385 249.167,273.548 249.497,273.239 249.746 C 272.854 250.058,269.498 250.200,262.516 250.200 L 252.353 250.200 252.277 240.500 C 252.234 235.165,252.333 230.755,252.497 230.700 C 254.371 230.068,274.360 230.948,275.790 231.725 M215.917 231.700 C 219.585 233.529,221.445 239.655,219.200 242.509 C 218.760 243.069,218.394 243.678,218.387 243.863 C 218.317 245.754,211.099 247.197,201.700 247.199 L 194.800 247.200 194.800 239.000 L 194.800 230.800 204.456 230.800 C 213.669 230.800,214.195 230.841,215.917 231.700 M194.410 256.173 C 193.778 257.837,193.870 274.470,194.517 275.354 C 195.251 276.358,214.942 276.177,217.229 275.145 C 225.936 271.216,225.198 258.957,216.090 256.217 C 214.319 255.684,211.650 255.478,204.310 255.311 L 194.820 255.094 194.410 256.173 M216.800 257.182 C 219.324 258.324,220.950 259.762,221.409 261.261 C 221.568 261.777,221.856 262.398,222.048 262.640 C 223.939 265.016,221.009 273.600,218.307 273.600 C 218.063 273.600,217.515 273.915,217.090 274.300 C 216.402 274.922,215.118 275.016,205.558 275.143 L 194.800 275.285 194.800 265.782 L 194.800 256.279 205.300 256.504 C 211.770 256.643,216.184 256.903,216.800 257.182 " stroke="none" fill="#bbb55f" fill-rule="evenodd"></path><path id="path4" d="M278.090 50.100 C 278.208 81.056,278.104 79.330,280.026 82.400 C 280.233 82.730,280.585 83.426,280.809 83.947 C 281.033 84.468,281.527 85.302,281.908 85.801 C 282.289 86.299,282.870 87.129,283.200 87.644 C 285.121 90.641,294.857 99.200,296.346 99.200 C 296.596 99.200,296.800 99.341,296.800 99.512 C 296.800 99.684,297.295 100.038,297.900 100.298 C 298.505 100.558,299.270 100.947,299.600 101.163 C 299.930 101.378,301.550 102.178,303.200 102.940 C 310.775 106.438,312.000 107.089,312.000 107.616 C 312.000 107.822,312.585 108.261,313.300 108.594 C 314.015 108.926,315.140 109.557,315.800 109.995 C 316.460 110.433,317.450 111.015,318.000 111.288 C 318.550 111.560,319.090 111.897,319.200 112.036 C 319.310 112.175,320.009 112.628,320.752 113.044 C 323.136 114.377,325.571 115.970,326.329 116.695 C 326.619 116.973,327.114 117.200,327.429 117.200 C 327.743 117.200,328.000 117.384,328.000 117.610 C 328.000 117.835,328.405 118.179,328.900 118.374 C 329.395 118.568,330.699 119.374,331.799 120.164 C 332.898 120.954,334.014 121.600,334.279 121.600 C 334.544 121.600,334.904 121.825,335.080 122.100 C 335.398 122.597,336.397 123.240,338.500 124.303 C 339.105 124.609,339.600 124.986,339.600 125.142 C 339.600 125.297,340.095 125.640,340.700 125.903 C 341.305 126.166,342.880 127.104,344.200 127.987 C 345.520 128.869,346.960 129.760,347.400 129.966 C 347.840 130.172,349.640 131.343,351.400 132.568 C 353.160 133.793,354.825 134.796,355.100 134.797 C 355.375 134.799,355.600 134.980,355.600 135.200 C 355.600 135.420,355.870 135.600,356.200 135.600 C 356.530 135.600,357.149 135.949,357.575 136.375 C 358.001 136.801,359.816 137.995,361.608 139.029 C 363.400 140.063,364.961 141.154,365.076 141.454 C 365.191 141.754,365.539 142.000,365.848 142.000 C 366.325 142.000,366.403 139.046,366.357 122.700 L 366.303 103.400 363.451 100.831 C 360.867 98.502,358.075 95.879,349.828 88.036 C 348.303 86.586,347.216 85.670,347.412 86.000 C 347.608 86.330,349.207 87.950,350.965 89.600 C 352.723 91.250,355.970 94.328,358.181 96.441 C 360.391 98.553,363.098 101.107,364.195 102.117 C 365.725 103.524,366.045 104.008,365.567 104.191 C 363.823 104.861,308.211 104.206,307.000 103.502 C 306.340 103.119,305.565 102.804,305.277 102.802 C 304.414 102.798,298.427 99.618,294.839 97.257 C 287.563 92.469,282.389 86.308,279.340 78.800 C 278.661 77.130,278.600 75.071,278.489 50.200 C 278.361 21.809,278.388 21.103,279.550 22.155 C 279.942 22.510,280.429 22.796,280.631 22.791 C 281.188 22.778,279.078 21.219,278.490 21.209 C 278.080 21.202,278.001 26.879,278.090 50.100 M284.000 26.028 C 285.650 27.664,287.360 29.262,287.800 29.580 C 288.824 30.320,286.059 27.581,283.200 25.023 C 281.930 23.886,282.268 24.311,284.000 26.028 M288.439 30.500 C 288.535 30.555,289.420 31.320,290.406 32.200 L 292.200 33.800 290.619 32.100 C 289.749 31.165,288.864 30.400,288.652 30.400 C 288.440 30.400,288.344 30.445,288.439 30.500 M292.400 34.116 C 292.400 34.190,292.952 34.779,293.626 35.424 C 294.345 36.113,294.744 36.320,294.592 35.923 C 294.372 35.350,292.400 33.724,292.400 34.116 M295.200 36.511 C 295.200 36.812,296.151 37.770,300.828 42.180 C 302.682 43.929,306.180 47.259,308.600 49.580 C 313.582 54.358,315.689 56.213,314.788 55.026 C 314.465 54.600,313.410 53.520,312.445 52.626 C 307.504 48.048,296.747 37.885,295.933 37.025 C 295.530 36.598,295.200 36.367,295.200 36.511 M317.028 57.200 C 317.214 57.530,319.074 59.420,321.162 61.400 C 323.250 63.380,326.948 66.897,329.379 69.215 C 331.811 71.534,335.137 74.684,336.771 76.215 C 338.405 77.747,340.582 79.810,341.608 80.800 C 345.278 84.339,347.137 85.959,345.797 84.452 C 344.526 83.021,342.165 80.740,333.563 72.629 C 327.250 66.678,322.602 62.271,319.645 59.434 C 318.020 57.875,316.843 56.870,317.028 57.200 M317.700 106.682 C 317.205 106.778,316.395 106.778,315.900 106.682 C 315.405 106.587,315.810 106.509,316.800 106.509 C 317.790 106.509,318.195 106.587,317.700 106.682 M327.507 106.686 C 326.906 106.777,325.826 106.779,325.107 106.690 C 324.388 106.601,324.880 106.526,326.200 106.524 C 327.520 106.522,328.108 106.595,327.507 106.686 M342.300 106.696 C 341.035 106.775,338.965 106.775,337.700 106.696 C 336.435 106.616,337.470 106.551,340.000 106.551 C 342.530 106.551,343.565 106.616,342.300 106.696 M360.078 106.699 C 357.591 106.769,353.631 106.769,351.278 106.698 C 348.925 106.628,350.960 106.570,355.800 106.570 C 360.640 106.571,362.565 106.629,360.078 106.699 M197.400 185.598 L 312.200 185.800 314.500 186.947 C 317.228 188.307,320.943 192.128,321.653 194.304 C 322.334 196.390,322.684 303.625,322.020 306.638 C 321.431 309.309,318.584 312.815,315.435 314.748 L 313.070 316.200 197.768 316.200 C 134.352 316.200,82.513 316.246,82.569 316.302 C 82.625 316.358,84.185 316.476,86.035 316.564 C 89.708 316.738,94.077 317.980,95.426 319.233 C 95.880 319.655,96.465 320.000,96.726 320.000 C 96.987 320.000,97.200 320.186,97.200 320.413 C 97.200 320.640,97.515 320.955,97.900 321.113 C 98.982 321.557,104.535 324.920,105.129 325.491 C 105.419 325.771,105.899 326.000,106.195 326.000 C 106.491 326.000,106.793 326.135,106.867 326.300 C 107.041 326.692,108.831 327.914,111.734 329.625 C 115.191 331.661,115.216 331.677,117.641 333.300 C 118.874 334.125,120.089 334.800,120.341 334.800 C 120.594 334.800,120.800 334.958,120.800 335.151 C 120.800 335.345,121.340 335.727,122.000 336.000 C 122.660 336.273,123.200 336.643,123.200 336.822 C 123.200 337.000,123.591 337.270,124.069 337.422 C 124.547 337.574,125.132 337.858,125.369 338.055 C 126.068 338.633,128.819 340.400,129.022 340.400 C 129.124 340.400,130.105 341.030,131.200 341.800 C 132.295 342.570,133.285 343.200,133.400 343.200 C 133.515 343.200,134.505 343.830,135.600 344.600 C 136.695 345.370,137.729 346.000,137.896 346.001 C 138.063 346.001,139.237 346.721,140.504 347.601 C 141.772 348.480,142.898 349.200,143.008 349.200 C 143.118 349.200,144.070 349.785,145.124 350.500 C 148.167 352.565,148.536 352.786,149.700 353.245 C 150.305 353.483,150.800 353.827,150.800 354.010 C 150.800 354.192,151.340 354.625,152.000 354.971 C 152.660 355.317,153.740 355.883,154.400 356.229 C 155.060 356.575,155.600 356.986,155.600 357.142 C 155.600 357.297,156.095 357.641,156.700 357.905 C 157.305 358.169,158.340 358.746,159.000 359.187 C 159.660 359.628,160.567 360.152,161.016 360.352 C 161.465 360.553,162.073 361.005,162.365 361.358 C 162.658 361.711,163.091 362.000,163.327 362.000 C 163.702 362.000,166.651 363.833,167.200 364.407 C 167.310 364.522,167.850 364.836,168.400 365.105 C 169.513 365.649,170.096 366.013,172.876 367.900 C 173.930 368.615,174.952 369.200,175.147 369.200 C 175.342 369.200,175.726 369.470,176.000 369.800 C 176.757 370.712,348.145 370.712,349.057 369.800 C 349.387 369.470,350.160 369.200,350.775 369.200 C 351.389 369.200,352.350 368.840,352.909 368.400 C 353.469 367.960,354.130 367.600,354.379 367.600 C 355.208 367.600,360.400 363.306,360.400 362.621 C 360.400 362.522,360.818 361.990,361.330 361.438 C 362.736 359.921,364.641 356.022,364.956 354.020 C 365.109 353.041,365.452 351.978,365.718 351.658 C 366.089 351.210,366.200 337.287,366.200 290.900 L 366.200 230.722 364.400 229.704 C 363.410 229.145,361.970 228.323,361.200 227.878 C 360.430 227.433,359.305 226.816,358.700 226.505 C 358.095 226.195,357.600 225.775,357.600 225.571 C 357.600 225.367,357.371 225.200,357.091 225.200 C 356.811 225.200,355.638 224.578,354.484 223.819 C 353.331 223.059,351.950 222.204,351.417 221.919 C 350.529 221.444,348.152 220.014,344.431 217.716 C 343.644 217.229,342.505 216.627,341.900 216.377 C 341.295 216.126,340.800 215.781,340.800 215.609 C 340.800 215.438,340.260 215.073,339.600 214.800 C 338.940 214.527,338.400 214.184,338.400 214.039 C 338.400 213.894,337.905 213.554,337.300 213.283 C 336.085 212.740,334.524 211.861,333.600 211.200 C 332.897 210.697,331.410 209.840,330.000 209.124 C 329.450 208.845,328.856 208.388,328.680 208.108 C 328.504 207.829,328.123 207.600,327.834 207.600 C 327.545 207.600,326.850 207.240,326.291 206.800 C 325.731 206.360,325.016 206.000,324.701 206.000 C 323.694 206.000,323.121 203.932,323.151 200.400 C 323.206 193.829,320.229 188.880,314.628 186.231 L 312.450 185.200 197.525 185.298 L 82.600 185.397 197.400 185.598 M324.300 266.470 C 324.241 277.321,324.192 268.560,324.192 247.000 C 324.192 225.440,324.241 216.561,324.300 227.270 C 324.359 237.978,324.359 255.618,324.300 266.470 M272.100 222.276 C 272.485 222.376,273.115 222.376,273.500 222.276 C 273.885 222.175,273.570 222.093,272.800 222.093 C 272.030 222.093,271.715 222.175,272.100 222.276 M173.331 225.400 C 173.333 226.940,173.405 227.521,173.492 226.691 C 173.579 225.861,173.577 224.601,173.489 223.891 C 173.400 223.181,173.329 223.860,173.331 225.400 M146.700 229.500 C 151.375 229.564,159.025 229.564,163.700 229.500 C 168.375 229.436,164.550 229.383,155.200 229.383 C 145.850 229.383,142.025 229.436,146.700 229.500 M194.661 229.500 C 194.558 229.665,196.753 229.753,199.537 229.696 C 208.879 229.504,209.856 229.357,202.324 229.278 C 198.212 229.235,194.763 229.335,194.661 229.500 M256.923 229.499 C 259.520 229.569,263.660 229.568,266.123 229.498 C 268.585 229.428,266.460 229.371,261.400 229.372 C 256.340 229.372,254.325 229.429,256.923 229.499 M137.279 239.476 C 137.236 243.918,137.335 247.637,137.500 247.739 C 137.665 247.842,137.753 245.467,137.696 242.463 C 137.505 232.382,137.360 231.340,137.279 239.476 M250.973 241.000 C 250.973 246.280,251.030 248.385,251.099 245.677 C 251.168 242.969,251.168 238.649,251.099 236.077 C 251.029 233.505,250.972 235.720,250.973 241.000 M228.924 237.800 C 228.926 239.120,229.001 239.612,229.090 238.893 C 229.179 238.174,229.177 237.094,229.086 236.493 C 228.995 235.892,228.922 236.480,228.924 237.800 M220.893 238.800 C 220.893 239.570,220.975 239.885,221.076 239.500 C 221.176 239.115,221.176 238.485,221.076 238.100 C 220.975 237.715,220.893 238.030,220.893 238.800 M289.724 240.200 C 289.726 241.520,289.801 242.012,289.890 241.293 C 289.979 240.574,289.977 239.494,289.886 238.893 C 289.795 238.292,289.722 238.880,289.724 240.200 M224.575 248.100 L 223.400 249.400 224.700 248.225 C 225.415 247.579,226.000 246.994,226.000 246.925 C 226.000 246.616,225.670 246.888,224.575 248.100 M198.878 247.898 C 201.231 247.969,205.191 247.969,207.678 247.899 C 210.165 247.829,208.240 247.771,203.400 247.770 C 198.560 247.770,196.525 247.828,198.878 247.898 M269.700 251.076 C 270.085 251.176,270.715 251.176,271.100 251.076 C 271.485 250.975,271.170 250.893,270.400 250.893 C 269.630 250.893,269.315 250.975,269.700 251.076 M146.300 255.500 C 150.755 255.564,158.045 255.564,162.500 255.500 C 166.955 255.435,163.310 255.382,154.400 255.382 C 145.490 255.382,141.845 255.435,146.300 255.500 M210.900 255.476 C 211.285 255.576,211.915 255.576,212.300 255.476 C 212.685 255.375,212.370 255.293,211.600 255.293 C 210.830 255.293,210.515 255.375,210.900 255.476 M137.370 266.000 C 137.370 270.730,137.428 272.665,137.498 270.300 C 137.569 267.935,137.569 264.065,137.498 261.700 C 137.428 259.335,137.370 261.270,137.370 266.000 M219.600 257.725 C 219.600 257.794,220.185 258.379,220.900 259.025 L 222.200 260.200 221.025 258.900 C 219.930 257.688,219.600 257.416,219.600 257.725 M256.522 258.699 C 258.899 258.770,262.679 258.769,264.922 258.698 C 267.165 258.627,265.220 258.569,260.600 258.569 C 255.980 258.570,254.145 258.628,256.522 258.699 M250.975 271.200 C 250.975 277.250,251.031 279.725,251.099 276.700 C 251.167 273.675,251.167 268.725,251.099 265.700 C 251.031 262.675,250.975 265.150,250.975 271.200 M223.314 265.800 C 223.317 266.900,223.395 267.303,223.487 266.695 C 223.579 266.086,223.577 265.186,223.482 264.695 C 223.387 264.203,223.311 264.700,223.314 265.800 M220.575 272.900 L 219.400 274.200 220.700 273.025 C 221.415 272.379,222.000 271.794,222.000 271.725 C 222.000 271.416,221.670 271.688,220.575 272.900 M194.012 275.051 C 193.979 276.271,195.156 276.415,204.250 276.300 L 213.400 276.184 204.120 276.092 C 195.762 276.009,194.799 275.930,194.432 275.300 C 194.208 274.915,194.019 274.803,194.012 275.051 M137.932 276.092 C 138.092 276.252,146.264 276.432,156.092 276.492 C 165.920 276.551,173.829 276.469,173.668 276.308 C 173.508 276.148,165.336 275.968,155.508 275.908 C 145.680 275.849,137.771 275.931,137.932 276.092 M324.299 300.477 C 324.230 303.185,324.173 301.080,324.173 295.800 C 324.172 290.520,324.229 288.305,324.299 290.877 C 324.368 293.449,324.368 297.769,324.299 300.477 M17.301 292.200 C 17.305 293.080,17.387 293.393,17.483 292.895 C 17.579 292.398,17.575 291.678,17.475 291.295 C 17.375 290.913,17.296 291.320,17.301 292.200 " stroke="none" fill="#e4d45c" fill-rule="evenodd"></path></g></svg>